<svg width="101" height="102" viewBox="0 0 101 102" fill="none" xmlns="http://www.w3.org/2000/svg">
<g clip-path="url(#clip0_2966_33214)">
<path fill-rule="evenodd" clip-rule="evenodd" d="M48.5717 0.0390778C76.0197 -1.02898 98.9122 20.0141 100.989 46.8327C101.154 48.9735 99.4862 50.81 97.3486 50.81C95.4348 50.81 93.8603 49.3234 93.7117 47.4068C91.9188 24.2496 71.9886 6.12472 48.2172 7.39706C27.1552 8.52325 8.48304 27.2836 7.36162 48.445C6.09578 72.3287 24.135 92.353 47.1833 94.1544C49.091 94.3036 50.5711 95.8856 50.5711 97.8085C50.5711 100.004 48.7901 101.636 46.6119 101.466C19.9199 99.3794 -1.02429 76.3799 0.0387421 48.8028C1.05486 22.4325 22.3254 1.06104 48.5717 0.0390778Z" fill="#FFE5D3"/>
<path fill-rule="evenodd" clip-rule="evenodd" d="M52.4283 101.439C24.9803 102.507 2.08784 81.4638 0.0113035 54.6452C-0.153964 52.5044 1.51383 50.6679 3.65137 50.6679C5.56524 50.6679 7.13972 52.1545 7.2883 54.0711C9.08122 77.2283 29.0114 95.3532 52.7828 94.0808C73.8448 92.9547 92.517 74.1944 93.6384 53.0329C94.9042 29.1492 76.865 9.12494 53.8167 7.32355C51.909 7.17427 50.4289 5.59236 50.4289 3.66944C50.4289 1.47415 52.2099 -0.158046 54.3881 0.012193C81.0801 2.09853 102.024 25.098 100.961 52.6751C99.9451 79.0454 78.6746 100.417 52.4283 101.439Z" fill="#FF7A00"/>
<path fill-rule="evenodd" clip-rule="evenodd" d="M50.4999 73.2307C62.8636 73.2307 72.8865 63.1605 72.8865 50.7384C72.8865 38.3162 62.8636 28.2461 50.4999 28.2461C38.1361 28.2461 28.1133 38.3162 28.1133 50.7384C28.1133 63.1605 38.1361 73.2307 50.4999 73.2307Z" fill="#FF7A00"/>
<path d="M40.8949 57.108C39.8709 57.108 39.0789 56.748 38.5189 56.028C37.9669 55.3 37.6909 54.284 37.6909 52.98C37.6909 52.004 37.8309 51.18 38.1109 50.508C38.3909 49.828 38.7909 49.312 39.3109 48.96C39.8309 48.608 40.4589 48.432 41.1949 48.432C41.6349 48.432 42.0789 48.524 42.5269 48.708C42.9749 48.884 43.3429 49.132 43.6309 49.452L43.2709 50.22C42.9669 49.908 42.6349 49.68 42.2749 49.536C41.9149 49.384 41.5509 49.308 41.1829 49.308C40.3669 49.308 39.7389 49.6 39.2989 50.184C38.8669 50.76 38.6509 51.628 38.6509 52.788V53.904H38.5429C38.5989 53.448 38.7349 53.056 38.9509 52.728C39.1749 52.392 39.4669 52.136 39.8269 51.96C40.1869 51.784 40.5869 51.696 41.0269 51.696C41.5389 51.696 41.9909 51.808 42.3829 52.032C42.7749 52.256 43.0829 52.572 43.3069 52.98C43.5309 53.38 43.6429 53.84 43.6429 54.36C43.6429 54.888 43.5269 55.36 43.2949 55.776C43.0629 56.192 42.7389 56.52 42.3229 56.76C41.9069 56.992 41.4309 57.108 40.8949 57.108ZM40.8229 56.268C41.1909 56.268 41.5149 56.192 41.7949 56.04C42.0829 55.88 42.3029 55.66 42.4549 55.38C42.6149 55.092 42.6949 54.764 42.6949 54.396C42.6949 54.028 42.6149 53.704 42.4549 53.424C42.3029 53.144 42.0829 52.924 41.7949 52.764C41.5149 52.604 41.1909 52.524 40.8229 52.524C40.4549 52.524 40.1309 52.604 39.8509 52.764C39.5709 52.924 39.3509 53.144 39.1909 53.424C39.0389 53.704 38.9629 54.028 38.9629 54.396C38.9629 54.764 39.0389 55.092 39.1909 55.38C39.3509 55.66 39.5709 55.88 39.8509 56.04C40.1309 56.192 40.4549 56.268 40.8229 56.268ZM45.5702 57L49.7342 48.96V49.392H45.0062V48.54H50.6342V49.284L46.6622 57H45.5702ZM54.9615 57H54.0855L59.1135 48.54H59.9895L54.9615 57ZM54.1095 53.616C53.4615 53.616 52.9495 53.388 52.5735 52.932C52.2055 52.468 52.0215 51.832 52.0215 51.024C52.0215 50.208 52.2095 49.576 52.5855 49.128C52.9615 48.672 53.4695 48.444 54.1095 48.444C54.7575 48.444 55.2655 48.672 55.6335 49.128C56.0095 49.576 56.1975 50.208 56.1975 51.024C56.1975 51.832 56.0095 52.468 55.6335 52.932C55.2655 53.388 54.7575 53.616 54.1095 53.616ZM54.1095 52.92C54.5015 52.92 54.8055 52.764 55.0215 52.452C55.2455 52.132 55.3575 51.656 55.3575 51.024C55.3575 50.384 55.2455 49.908 55.0215 49.596C54.8055 49.284 54.5015 49.128 54.1095 49.128C53.7255 49.128 53.4215 49.284 53.1975 49.596C52.9815 49.908 52.8735 50.384 52.8735 51.024C52.8735 51.664 52.9815 52.14 53.1975 52.452C53.4215 52.764 53.7255 52.92 54.1095 52.92ZM59.9655 57.108C59.3095 57.108 58.7935 56.88 58.4175 56.424C58.0495 55.968 57.8655 55.328 57.8655 54.504C57.8655 53.688 58.0535 53.056 58.4295 52.608C58.8055 52.16 59.3175 51.936 59.9655 51.936C60.6135 51.936 61.1215 52.164 61.4895 52.62C61.8655 53.068 62.0535 53.696 62.0535 54.504C62.0535 55.32 61.8655 55.96 61.4895 56.424C61.1215 56.88 60.6135 57.108 59.9655 57.108ZM59.9655 56.412C60.3495 56.412 60.6495 56.256 60.8655 55.944C61.0895 55.624 61.2015 55.144 61.2015 54.504C61.2015 53.872 61.0895 53.4 60.8655 53.088C60.6495 52.776 60.3495 52.62 59.9655 52.62C59.5735 52.62 59.2695 52.776 59.0535 53.088C58.8375 53.4 58.7295 53.872 58.7295 54.504C58.7295 55.152 58.8375 55.632 59.0535 55.944C59.2695 56.256 59.5735 56.412 59.9655 56.412Z" fill="white"/>
</g>
<defs>
<clipPath id="clip0_2966_33214">
<rect width="101" height="102" fill="white"/>
</clipPath>
</defs>
</svg>
