<svg width="28" height="28" viewBox="0 0 28 28" fill="none" xmlns="http://www.w3.org/2000/svg">
<path d="M15.8787 14.0002L26.932 2.94683C27.1504 2.69176 27.2646 2.36366 27.2516 2.02809C27.2386 1.69253 27.0995 1.37421 26.8621 1.13675C26.6246 0.899289 26.3063 0.760179 25.9707 0.747217C25.6352 0.734256 25.3071 0.848398 25.052 1.06683L13.9987 12.1202L2.94533 1.0535C2.69426 0.802428 2.35373 0.661377 1.99866 0.661377C1.64359 0.661377 1.30307 0.802428 1.052 1.0535C0.800924 1.30457 0.659873 1.6451 0.659873 2.00017C0.659873 2.35523 0.800924 2.69576 1.052 2.94683L12.1187 14.0002L1.052 25.0535C0.91242 25.173 0.799059 25.3201 0.719028 25.4855C0.638997 25.651 0.594024 25.8311 0.586931 26.0148C0.579838 26.1984 0.610779 26.3815 0.677812 26.5526C0.744845 26.7237 0.846522 26.8791 0.976462 27.009C1.1064 27.139 1.2618 27.2406 1.4329 27.3077C1.604 27.3747 1.78711 27.4057 1.97073 27.3986C2.15436 27.3915 2.33454 27.3465 2.49996 27.2665C2.66537 27.1864 2.81247 27.0731 2.932 26.9335L13.9987 15.8802L25.052 26.9335C25.3071 27.1519 25.6352 27.2661 25.9707 27.2531C26.3063 27.2402 26.6246 27.101 26.8621 26.8636C27.0995 26.6261 27.2386 26.3078 27.2516 25.9722C27.2646 25.6367 27.1504 25.3086 26.932 25.0535L15.8787 14.0002Z" fill="#ACACAC"/>
</svg>
